HIERARCHY
ROOT Hips
{
	OFFSET 0.000000 0.000000 0.000000
	CHANNELS 6 Xposition Yposition Zposition Xrotation Yrotation Zrotation
	JOINT LeftUpLeg_virtual
	{
		OFFSET 0.000000 0.000000 0.000000
		CHANNELS 3 Xrotation Yrotation Zrotation
		JOINT LeftUpLeg
		{
			OFFSET 11.394100 -6.187798 -0.413800
			CHANNELS 3 Xrotation Yrotation Zrotation
			JOINT LeftLeg
			{
				OFFSET 0.430247 -32.302673 3.732800
				CHANNELS 3 Xrotation Yrotation Zrotation
				JOINT LeftFoot
				{
					OFFSET -0.430247 -48.264931 -6.423300
					CHANNELS 3 Xrotation Yrotation Zrotation
					JOINT LeftToeBase
					{
						OFFSET 4.230900 -16.068199 23.438400
						CHANNELS 3 Xrotation Yrotation Zrotation
						JOINT LeftToe_End
						{
							OFFSET 4.510700 0.695400 19.974600
							CHANNELS 3 Xrotation Yrotation Zrotation
							End Site
							{
								OFFSET 0 0 0
							}
						}
					}
				}
			}
		}
	}
	JOINT RightUpLeg_virtual
	{
		OFFSET 0.000000 0.000000 0.000000
		CHANNELS 3 Xrotation Yrotation Zrotation
		JOINT RightUpLeg
		{
			OFFSET -11.333700 -6.187798 -0.413800
			CHANNELS 3 Xrotation Yrotation Zrotation
			JOINT RightLeg
			{
				OFFSET -0.430392 -32.302628 3.733000
				CHANNELS 3 Xrotation Yrotation Zrotation
				JOINT RightFoot
				{
					OFFSET 0.430392 -48.264973 -6.423500
					CHANNELS 3 Xrotation Yrotation Zrotation
					JOINT RightToeBase
					{
						OFFSET -4.230900 -16.068199 23.438400
						CHANNELS 3 Xrotation Yrotation Zrotation
						JOINT RightToe_End
						{
							OFFSET -4.510700 0.695400 19.974600
							CHANNELS 3 Xrotation Yrotation Zrotation
							End Site
							{
								OFFSET 0 0 0
							}
						}
					}
				}
			}
		}
	}
	JOINT Spine_virtual
	{
		OFFSET 0.000000 0.000000 0.000000
		CHANNELS 3 Xrotation Yrotation Zrotation
		JOINT Spine
		{
			OFFSET -0.002400 12.777504 0.315300
			CHANNELS 3 Xrotation Yrotation Zrotation
			JOINT Spine1
			{
				OFFSET -0.002067 5.816869 0.032633
				CHANNELS 3 Xrotation Yrotation Zrotation
				JOINT Spine1_split
				{
					OFFSET -0.002067 5.816869 0.032633
					CHANNELS 3 Xrotation Yrotation Zrotation
					JOINT Spine2
					{
						OFFSET -0.002067 5.816869 0.032633
						CHANNELS 3 Xrotation Yrotation Zrotation
						JOINT Neck_virtual
						{
							OFFSET 0.000000 0.000000 0.000000
							CHANNELS 3 Xrotation Yrotation Zrotation
							JOINT Neck
							{
								OFFSET -0.003700 21.199493 -0.826900
								CHANNELS 3 Xrotation Yrotation Zrotation
								JOINT Head
								{
									OFFSET 0.000000 20.442200 4.834800
									CHANNELS 3 Xrotation Yrotation Zrotation
									JOINT HeadTop_End
									{
										OFFSET 0.000000 34.668396 4.968400
										CHANNELS 3 Xrotation Yrotation Zrotation
										End Site
										{
											OFFSET 0 0 0
										}
									}
								}
							}
						}
						JOINT LeftShoulder_virtual
						{
							OFFSET 0.000000 0.000000 0.000000
							CHANNELS 3 Xrotation Yrotation Zrotation
							JOINT LeftShoulder
							{
								OFFSET 3.288150 8.794197 -1.372250
								CHANNELS 3 Xrotation Yrotation Zrotation
								JOINT LeftShoulder_split
								{
									OFFSET 3.288150 8.794197 -1.372250
									CHANNELS 3 Xrotation Yrotation Zrotation
									JOINT LeftArm
									{
										OFFSET 11.953299 -2.279007 -0.146200
										CHANNELS 3 Xrotation Yrotation Zrotation
										JOINT LeftForeArm
										{
											OFFSET 18.448900 0.000000 0.000000
											CHANNELS 3 Xrotation Yrotation Zrotation
											JOINT LeftHand
											{
												OFFSET 29.527798 0.000000 0.000000
												CHANNELS 3 Xrotation Yrotation Zrotation
												End Site
												{
													OFFSET 0 0 0
												}
											}
										}
									}
								}
							}
						}
						JOINT RightShoulder_virtual
						{
							OFFSET 0.000000 0.000000 0.000000
							CHANNELS 3 Xrotation Yrotation Zrotation
							JOINT RightShoulder
							{
								OFFSET -3.249400 8.794197 -1.372250
								CHANNELS 3 Xrotation Yrotation Zrotation
								JOINT RightShoulder_split
								{
									OFFSET -3.249400 8.794197 -1.372250
									CHANNELS 3 Xrotation Yrotation Zrotation
									JOINT RightArm
									{
										OFFSET -11.953299 -2.279007 -0.146200
										CHANNELS 3 Xrotation Yrotation Zrotation
										JOINT RightForeArm
										{
											OFFSET -18.448900 0.000000 0.000000
											CHANNELS 3 Xrotation Yrotation Zrotation
											JOINT RightHand
											{
												OFFSET -29.527802 0.000000 0.000000
												CHANNELS 3 Xrotation Yrotation Zrotation
												End Site
												{
													OFFSET 0 0 0
												}
											}
										}
									}
								}
							}
						}
					}
				}
			}
		}
	}
}
MOTION
Frames: 4
Frame Time: 0.03333333
5.950266 32.858807 -27.722530 0.000000 0.000000 0.000000 38.994404 28.296547 -4.281559 -83.001763 -44.098225 -2.630764 116.774091 -7.433058 -5.246329 20.792412 14.839491 -31.654491 -77.668998 0.029065 -24.190879 0.000000 0.000000 0.000000 40.710697 20.639660 -2.380862 -88.882734 12.326371 -28.180312 128.487784 6.017903 -7.886306 27.043036 -14.121823 47.579231 -41.579101 25.282924 -18.448228 0.000000 0.000000 0.000000 46.629958 24.660106 -5.390860 27.079195 5.323616 0.281862 11.259223 1.883049 -1.435366 0.056875 -0.594356 0.146467 0.000000 0.000000 0.000000 13.363337 4.227753 -0.265321 2.800173 13.476884 15.361459 -41.853169 -47.476727 -35.717986 0.000000 0.000000 0.000000 10.039233 2.063601 -2.551988 3.209324 -39.334253 11.672478 3.663535 -0.111965 -2.743186 -55.035858 -34.446406 -66.291507 -22.094847 -61.727971 -13.349286 0.000000 0.000000 0.000000 11.537827 2.504647 0.282079 -1.110984 8.025358 -4.432758 0.480599 0.962201 -0.169194 -29.031077 28.532130 53.246860 -81.214433 62.184843 70.112780 0.000000 0.000000 0.000000 
5.586967 32.510925 -28.307247 0.000000 0.000000 0.000000 37.183242 27.303937 -3.732826 -81.819307 -44.777381 -1.944828 117.831500 -7.652463 -5.384361 20.780792 14.893081 -32.058251 -78.452434 0.163613 -24.090019 0.000000 0.000000 0.000000 38.967373 19.950136 -2.022613 -89.542817 13.169317 -26.524357 129.358414 5.916937 -7.697234 27.415292 -13.862763 47.942921 -40.471873 25.272642 -20.370450 0.000000 0.000000 0.000000 44.557251 23.650828 -4.691536 26.687424 4.891828 -0.626821 12.108392 1.679355 -1.577972 0.086240 -0.604336 0.164862 0.000000 0.000000 0.000000 14.181130 4.061554 -0.464874 3.154064 13.578580 15.057722 -36.598018 -46.787769 -31.715417 0.000000 0.000000 0.000000 10.928883 1.865954 -2.780558 3.049795 -36.973945 10.799138 3.772630 -0.942594 -2.368361 -56.676326 -35.642143 -65.197981 -20.807164 -60.755721 -12.887986 0.000000 0.000000 0.000000 12.372974 2.314062 0.140666 -0.887822 7.840786 -3.953798 1.324884 1.880925 -0.258575 -32.035585 29.001588 55.545602 -79.953491 61.670994 68.799539 0.000000 0.000000 0.000000 
5.183895 32.351952 -28.832165 0.000000 0.000000 0.000000 35.341683 26.231826 -3.212467 -79.864070 -45.329657 -0.865318 118.771935 -7.776712 -5.629590 20.778880 15.121028 -32.282510 -78.891342 0.223752 -24.048712 0.000000 0.000000 0.000000 37.192074 19.193646 -1.668564 -90.041277 13.845935 -24.617878 129.939745 5.787507 -7.471648 27.953376 -13.647599 48.254197 -39.260996 25.236593 -22.434077 0.000000 0.000000 0.000000 42.343170 22.477738 -3.960238 26.408138 4.216721 -1.591303 12.693755 1.549593 -1.617225 0.098356 -0.649388 0.178699 0.000000 0.000000 0.000000 14.840802 3.979605 -0.578065 3.135370 13.735118 14.363915 -31.404404 -45.319640 -27.961061 0.000000 0.000000 0.000000 11.633015 1.761540 -2.858423 2.756980 -34.307251 9.642692 3.973740 -1.357018 -1.917778 -56.768250 -36.369463 -63.697805 -19.324366 -61.364359 -12.504491 0.000000 0.000000 0.000000 12.991324 2.140940 0.059398 -0.610707 7.617050 -3.560696 1.873476 2.602126 -0.065446 -35.299422 30.202762 59.026959 -77.530843 61.075599 66.705970 0.000000 0.000000 0.000000 
4.757611 32.369404 -29.247387 0.000000 0.000000 0.000000 33.555476 25.132096 -2.738201 -77.212550 -45.654586 0.567814 119.454312 -7.725977 -6.019488 20.481027 15.702591 -32.190046 -78.503148 0.225361 -24.224740 0.000000 0.000000 0.000000 35.454026 18.372895 -1.333840 -90.357447 14.352683 -22.606702 130.177299 5.629131 -7.158040 28.779337 -13.488728 48.495808 -37.989857 25.083778 -24.384487 0.000000 0.000000 0.000000 40.126941 21.246787 -3.254814 26.252433 3.366722 -2.496779 13.004077 1.516330 -1.510803 0.118175 -0.719617 0.209079 0.000000 0.000000 0.000000 15.344976 3.983938 -0.576375 2.677395 13.904850 13.432674 -26.406865 -43.290098 -24.668989 0.000000 0.000000 0.000000 12.182373 1.762977 -2.735878 2.439891 -31.530308 8.460449 4.304613 -1.472371 -1.425619 -55.628431 -36.484039 -62.193913 -17.688344 -63.376123 -12.147634 0.000000 0.000000 0.000000 13.420984 2.031627 0.081541 -0.316310 7.260375 -3.368132 2.009420 3.087121 0.342041 -38.423352 31.773330 63.075738 -74.369060 60.436642 64.204400 0.000000 0.000000 0.000000 
